<mxfile host="app.diagrams.net" modified="2023-04-20T18:19:07.321Z" agent="Mozilla/5.0 (Windows NT 10.0; Win64; x64; rv:109.0) Gecko/20100101 Firefox/112.0" version="21.1.5" etag="f27FXX8esnpQeI-etmw_" type="github">
  <diagram name="Страница 1" id="jhRbLKA4-imZrKw_z_AS">
    <mxGraphModel>
      <root>
        <mxCell id="0" />
        <mxCell id="1" parent="0" />
      </root>
    </mxGraphModel>
  </diagram>
</mxfile>
